# xmcd
#
# Track frame offsets:
#	150
#	17044
#	33219
#	50579
#	67227
#	82874
#	100769
#	113847
#	129404
#	145900
#	164927
#	180693
#	196136
#	214020
#	231413
#	251383
#	270924
#	287993
#	304750
#	320675
#
# Disc length: 4504 seconds
#
# Revision: 2
# Processed by: cddbd v1.5PL3 Copyright (c) Steve Scherf et al.
# Submitted via: EasyCDDAExtractor 6.2.0.3
#
DISCID=23119614
DTITLE=Various Artist - Hot Bikini
DYEAR=2003
DGENRE=Disco
TTITLE0=Hot Stars - HI-Q - Traieste
TTITLE1=Andrea Balan - Nopti De Vara Fierbinti
TTITLE2=BLESS vs MC K - Baby..Spune-mi
TTITLE3=Minodora - Lacrimi Lacrimi
TTITLE4=Alina - Zvonuri
TTITLE5=BLONDY
TTITLE6=Latin Express - Dibidibera
TTITLE7=Angel - Soarele Apune
TTITLE8=Mircea Rosu - Lacrima de dor
TTITLE9=Hot Stars - Ana Maria - Noapte Alba
TTITLE10=HI-Q - La La La
TTITLE11=Nicola - Dincolo de nuapte e zi
TTITLE12=Directia 5 - Unde Esti
TTITLE13=Delia - Ce Vor De La Mine
TTITLE14=Circa 7 - Guala Prin Casa
TTITLE15=Compact - Cind Ma Gindesc La Tine
TTITLE16=Ovidiu Komornyik - Nu Plinge Iubito
TTITLE17=Benone feat RO-Mania - Cocosel de la Buzau
TTITLE18=Spicy - Bikini Party
TTITLE19=Pepe- Tu miai adus iubirea
EXTD=
EXTT0=
EXTT1=
EXTT2=
EXTT3=
EXTT4=
EXTT5=
EXTT6=
EXTT7=
EXTT8=
EXTT9=
EXTT10=
EXTT11=
EXTT12=
EXTT13=
EXTT14=
EXTT15=
EXTT16=
EXTT17=
EXTT18=
EXTT19=
PLAYORDER=
